<svg xmlns="http://www.w3.org/2000/svg" xmlns:xlink="http://www.w3.org/1999/xlink" viewBox="0 0 487.27 178.13"><defs><style>.cls-1{fill:#fff;}.cls-2{clip-path:url(#clip-path);}.cls-3{clip-path:url(#clip-path-2);}.cls-4{clip-path:url(#clip-path-3);}.cls-5{clip-path:url(#clip-path-4);}.cls-6{clip-path:url(#clip-path-5);}</style><clipPath id="clip-path"><path class="cls-1" d="M103.44,9.07c10-5.24,18-.63,19.3-.32a18.7,18.7,0,0,0-7.1,3.38,124.69,124.69,0,0,1-12.2-3.06m-97.08,90c29.48-52,77.81-94.51,146.54-82.52C133.29,4.87,114.89,0,98.2,0,38.06,0,0,63.16,6.36,99.06"/></clipPath><clipPath id="clip-path-2"><path class="cls-1" d="M8.78,101.3s43.84,17.29,78-14.17a77.3,77.3,0,0,0-24.13-34.2,76.75,76.75,0,0,0,14,35.55A77.35,77.35,0,0,1,52.73,50.57a91.82,91.82,0,0,1,50.68,15.36c9.17-15.53,13.77-24.28,20.44-30.6,0,0,22.87-22.49,31.87.37,0,0,3.13-9.2-2.07-15.72a118.77,118.77,0,0,0-24.38-2.59c-64,0-105.5,54.74-120.49,83.91"/></clipPath><clipPath id="clip-path-3"><path class="cls-1" d="M161.91,94.58l.11-.16-.11.16h0M126.15,37.66l0,0c-5.35,5.07-9.38,12-16.07,23.4-1.2,2-2.51,4.29-3.93,6.7a92.37,92.37,0,0,1,13.38,11.67,15.91,15.91,0,1,0,26.3,15.22,17.76,17.76,0,0,1,16.12-.11,46.81,46.81,0,0,1-71.57,7,76.28,76.28,0,0,0-2.46-11,75.38,75.38,0,0,1-10.89,8,83.08,83.08,0,0,1,9.51,19,42.31,42.31,0,0,0,9,5.81,59.9,59.9,0,0,0,9.93,3.73,61.29,61.29,0,0,0,22,1.88,4.43,4.43,0,0,0,.51-.06l.49-.05a45.61,45.61,0,0,0,6.34-1.29l.35-.1.54-.16c16.9-5.39,24-18.53,27.12-25.67a61.59,61.59,0,0,0-32.07-67.75,42,42,0,0,0-4.57,3.74"/></clipPath><clipPath id="clip-path-4"><path class="cls-1" d="M88.19,123.09a58,58,0,0,1,1.9,18.47,26.72,26.72,0,0,0,.52,7.66A62,62,0,0,0,158.72,114c-13.54,22.2-47.25,23.6-70.53,9.06"/></clipPath><clipPath id="clip-path-5"><path class="cls-1" d="M14.6,107.94c4.14,15.43,23.5,70.19,89,65,0,0-58.12-10.19-70-63.49A118.57,118.57,0,0,1,14.82,108Z"/></clipPath></defs><title>Asset 1</title><g id="Layer_2" data-name="Layer 2"><g id="Capa_1" data-name="Capa 1"><path class="cls-1" d="M103.44,9.07c10-5.24,18-.63,19.3-.32a18.7,18.7,0,0,0-7.1,3.38,124.69,124.69,0,0,1-12.2-3.06m-97.08,90c29.48-52,77.81-94.51,146.54-82.52C133.29,4.87,114.89,0,98.2,0,38.06,0,0,63.16,6.36,99.06"/><g class="cls-2"><rect class="cls-1" width="152.9" height="99.06"/></g><path class="cls-1" d="M8.78,101.3s43.84,17.29,78-14.17a77.3,77.3,0,0,0-24.13-34.2,76.75,76.75,0,0,0,14,35.55A77.35,77.35,0,0,1,52.73,50.57a91.82,91.82,0,0,1,50.68,15.36c9.17-15.53,13.77-24.28,20.44-30.6,0,0,22.87-22.49,31.87.37,0,0,3.13-9.2-2.07-15.72a118.77,118.77,0,0,0-24.38-2.59c-64,0-105.5,54.74-120.49,83.91"/><g class="cls-3"><rect class="cls-1" x="8.78" y="12.84" width="150.07" height="105.75"/></g><path class="cls-1" d="M161.91,94.58l.11-.16-.11.16h0M126.15,37.66l0,0c-5.35,5.07-9.38,12-16.07,23.4-1.2,2-2.51,4.29-3.93,6.7a92.37,92.37,0,0,1,13.38,11.67,15.91,15.91,0,1,0,26.3,15.22,17.76,17.76,0,0,1,16.12-.11,46.81,46.81,0,0,1-71.57,7,76.28,76.28,0,0,0-2.46-11,75.38,75.38,0,0,1-10.89,8,83.08,83.08,0,0,1,9.51,19,42.31,42.31,0,0,0,9,5.81,59.9,59.9,0,0,0,9.93,3.73,61.29,61.29,0,0,0,22,1.88,4.43,4.43,0,0,0,.51-.06l.49-.05a45.61,45.61,0,0,0,6.34-1.29l.35-.1.54-.16c16.9-5.39,24-18.53,27.12-25.67a61.59,61.59,0,0,0-32.07-67.75,42,42,0,0,0-4.57,3.74"/><g class="cls-4"><rect class="cls-1" x="76.99" y="33.92" width="87.18" height="96"/></g><path class="cls-1" d="M88.19,123.09a58,58,0,0,1,1.9,18.47,26.72,26.72,0,0,0,.52,7.66A62,62,0,0,0,158.72,114c-13.54,22.2-47.25,23.6-70.53,9.06"/><g class="cls-5"><rect class="cls-1" x="88.19" y="114.03" width="70.53" height="36.3"/></g><path class="cls-1" d="M37.29,109.21s17.75,1.23,37.1-9.32c0,0,14.38,19.71,12.89,41.44s18.63,28.78,18.63,28.78-57.38-10.3-68.62-60.9"/><path class="cls-1" d="M14.6,107.94c4.14,15.43,23.5,70.19,89,65,0,0-58.12-10.19-70-63.49A118.57,118.57,0,0,1,14.82,108Z"/><g class="cls-6"><rect class="cls-1" x="14.6" y="107.94" width="88.95" height="70.2"/></g><path class="cls-1" d="M167,33.18h3.65A1.43,1.43,0,0,1,172,34.6v3.65a1.43,1.43,0,0,1-1.43,1.43H167a1.43,1.43,0,0,1-1.43-1.43V34.6A1.42,1.42,0,0,1,167,33.18Z"/><path class="cls-1" d="M171.84,45.57A1.43,1.43,0,0,0,173.27,47h3.65a1.43,1.43,0,0,0,1.43-1.42V41.92a1.44,1.44,0,0,0-1.43-1.43h-3.65a1.44,1.44,0,0,0-1.43,1.43Z"/><path class="cls-1" d="M176.93,50.66v3.65a1.43,1.43,0,0,0,1.42,1.43H182a1.43,1.43,0,0,0,1.43-1.43V50.66A1.43,1.43,0,0,0,182,49.23h-3.65a1.43,1.43,0,0,0-1.42,1.43"/><path class="cls-1" d="M180.39,59v3.64a1.42,1.42,0,0,0,1.42,1.43h3.65a1.43,1.43,0,0,0,1.43-1.43V59a1.43,1.43,0,0,0-1.43-1.43h-3.65A1.42,1.42,0,0,0,180.39,59"/><path class="cls-1" d="M182.62,67.74v3.65a1.43,1.43,0,0,0,1.43,1.42h3.64a1.43,1.43,0,0,0,1.43-1.42V67.74a1.42,1.42,0,0,0-1.43-1.42h-3.64a1.42,1.42,0,0,0-1.43,1.42"/><path class="cls-1" d="M184.25,76.68v3.65a1.43,1.43,0,0,0,1.42,1.43h3.65a1.43,1.43,0,0,0,1.43-1.43V76.68a1.43,1.43,0,0,0-1.43-1.42h-3.65a1.43,1.43,0,0,0-1.42,1.42"/><path class="cls-1" d="M189.73,84h-3.65a1.43,1.43,0,0,0-1.43,1.43v3.65a1.42,1.42,0,0,0,1.43,1.42h3.65a1.42,1.42,0,0,0,1.43-1.42V85.43A1.43,1.43,0,0,0,189.73,84"/><path class="cls-1" d="M189.52,92.54h-3.64A1.43,1.43,0,0,0,184.45,94v3.65A1.43,1.43,0,0,0,185.88,99h3.64A1.43,1.43,0,0,0,191,97.62V94a1.43,1.43,0,0,0-1.43-1.43"/><path class="cls-1" d="M188.67,100.59H185A1.43,1.43,0,0,0,183.6,102v3.64a1.43,1.43,0,0,0,1.43,1.43h3.64a1.43,1.43,0,0,0,1.43-1.43V102a1.43,1.43,0,0,0-1.43-1.43"/><path class="cls-1" d="M186.78,108.73h-3.65a1.43,1.43,0,0,0-1.43,1.43v3.65a1.42,1.42,0,0,0,1.43,1.42h3.65a1.42,1.42,0,0,0,1.43-1.42v-3.65a1.43,1.43,0,0,0-1.43-1.43"/><path class="cls-1" d="M184.22,116.59h-3.64a1.43,1.43,0,0,0-1.43,1.43v3.64a1.43,1.43,0,0,0,1.43,1.43h3.64a1.43,1.43,0,0,0,1.43-1.43V118a1.43,1.43,0,0,0-1.43-1.43"/><path class="cls-1" d="M180.62,124.54H177a1.43,1.43,0,0,0-1.43,1.43v3.64A1.43,1.43,0,0,0,177,131h3.64a1.43,1.43,0,0,0,1.43-1.43V126a1.43,1.43,0,0,0-1.43-1.43"/><path class="cls-1" d="M175.8,132.31h-3.65a1.42,1.42,0,0,0-1.43,1.42v3.65a1.42,1.42,0,0,0,1.43,1.42h3.65a1.42,1.42,0,0,0,1.42-1.42v-3.65a1.42,1.42,0,0,0-1.42-1.42"/><path class="cls-1" d="M170.31,139.4h-3.65a1.44,1.44,0,0,0-1.43,1.43v3.65a1.43,1.43,0,0,0,1.43,1.43h3.65a1.43,1.43,0,0,0,1.42-1.43v-3.65a1.43,1.43,0,0,0-1.42-1.43"/><path class="cls-1" d="M163.77,146.51h-3.64a1.42,1.42,0,0,0-1.43,1.42v3.65a1.43,1.43,0,0,0,1.43,1.43h3.64a1.43,1.43,0,0,0,1.43-1.43v-3.65a1.42,1.42,0,0,0-1.43-1.42"/><path class="cls-1" d="M156.2,152.66h-3.65a1.42,1.42,0,0,0-1.42,1.43v3.65a1.41,1.41,0,0,0,1.42,1.42h3.65a1.42,1.42,0,0,0,1.43-1.42v-3.65a1.43,1.43,0,0,0-1.43-1.43"/><path class="cls-1" d="M148.53,157.58h-3.65a1.43,1.43,0,0,0-1.42,1.43v3.65a1.43,1.43,0,0,0,1.42,1.43h3.65a1.44,1.44,0,0,0,1.43-1.43V159a1.43,1.43,0,0,0-1.43-1.43"/><path class="cls-1" d="M140.58,162h-3.65a1.42,1.42,0,0,0-1.42,1.43v3.65a1.43,1.43,0,0,0,1.42,1.43h3.65a1.43,1.43,0,0,0,1.42-1.43v-3.65a1.42,1.42,0,0,0-1.42-1.43"/><path class="cls-1" d="M132.62,165.16H129a1.43,1.43,0,0,0-1.43,1.42v3.65a1.43,1.43,0,0,0,1.43,1.43h3.64a1.43,1.43,0,0,0,1.43-1.43v-3.65a1.43,1.43,0,0,0-1.43-1.42"/><path class="cls-1" d="M123.63,167.62H120a1.43,1.43,0,0,0-1.42,1.43v3.64a1.43,1.43,0,0,0,1.42,1.43h3.65a1.43,1.43,0,0,0,1.43-1.43v-3.64a1.43,1.43,0,0,0-1.43-1.43"/><path class="cls-1" d="M113.31,169.23h-3.64a1.43,1.43,0,0,0-1.43,1.42v3.65a1.43,1.43,0,0,0,1.43,1.43h3.64a1.43,1.43,0,0,0,1.43-1.43v-3.65a1.43,1.43,0,0,0-1.43-1.42"/><path class="cls-1" d="M160.87,32h3.65A1.44,1.44,0,0,0,166,30.52V26.87a1.43,1.43,0,0,0-1.43-1.42h-3.65a1.43,1.43,0,0,0-1.43,1.42v3.65A1.43,1.43,0,0,0,160.87,32"/><path class="cls-1" d="M263.52,94.34c-29.68,0-53.75-.63-53.75-1.41s24.07-1.41,53.75-1.41h74.56v2.82Z"/><path class="cls-1" d="M433.45,91.52c29.72,0,53.82.64,53.82,1.41s-24.1,1.41-53.82,1.41H358.8V91.52Z"/><path class="cls-1" d="M210.93,73V71l4.08-.4c3.66-.4,4.22-2.15,4.22-14.28V29.91c0-12.21-.64-13.89-4.22-14.29l-4.08-.4V13.14h25.62v2.08l-4.07.4c-3.67.4-4.23,2.08-4.23,14.29V56.33c0,12.13.56,13.88,4.23,14.28l4.07.4v2Z"/><path class="cls-1" d="M257.78,24.88l-.56.16.16,31.29c.08,12.84.88,14,4.79,14.28l4.23.4v2H243.25V71l4.07-.4c4-.32,4.72-1.67,4.79-14.28l.16-33.45c0-4.79-2.39-6.86-6.71-7.34l-2.71-.32V13.14H257.7c1.35,0,3.2,1.6,5.19,3.75,9.25,10.06,23.3,26.5,33.92,39.44l.48-.16L297,27.83c-.08-10.46-1-11.89-4.71-12.21l-3.91-.4V13.14h22.18v2.08l-3.51.4c-4.07.4-4.63,2.47-4.63,14.29V73.08a14.07,14.07,0,0,1-3.51.72c-11.89-15.56-24.42-30-41.1-48.92"/><path class="cls-1" d="M316.44,73V71l4.07-.4c3.59-.32,4.23-2.15,4.23-14.28V29.91c0-12.21-.64-14-4.23-14.29l-4.07-.4V13.14h39.19a30.26,30.26,0,0,1,.23,3.67,49.32,49.32,0,0,1-1.19,10.78h-2.08c-.48-6.94-2.07-10.37-8.93-10.37a68.22,68.22,0,0,0-9.9.87V40.76h4.39c8.69,0,10-.64,11-5.42h2.07l-.71,17.08h-2.08l-.56-3.28c-.72-3.67-2.07-4.55-10-4.55h-4.15V56.17c0,12.29,1.11,13.08,6.46,13.08h4.47c7,0,9.66-3.59,11.57-10.29h2.16A58.58,58.58,0,0,1,356.26,73Z"/><path class="cls-1" d="M399.28,74.2c-18,0-32.57-9.82-32.57-30.89C366.71,23.76,379.88,12,400.4,12c8.05,0,16.67,2.31,20.59,2.31a46.29,46.29,0,0,1,.48,5.19A94,94,0,0,1,420.27,33h-2.55c-.09-12.13-6.71-16.84-17.48-16.84-14.85,0-23.47,10.54-23.47,26.9,0,16.68,10.22,26.65,23.87,26.65,10.69,0,16-6.06,17.71-13.33h2.32c0,3.27-1,9.82-2.55,13.49-4.31,2.56-10.86,4.31-18.84,4.31"/><path class="cls-1" d="M463.92,74.2c-18,0-32.57-9.82-32.57-30.89C431.35,23.76,444.53,12,465,12c8.06,0,16.68,2.31,20.59,2.31a46.29,46.29,0,0,1,.48,5.19A94,94,0,0,1,484.91,33h-2.55c-.08-12.13-6.71-16.84-17.48-16.84-14.84,0-23.46,10.54-23.46,26.9,0,16.68,10.21,26.65,23.86,26.65,10.69,0,16-6.06,17.71-13.33h2.32c0,3.27-.95,9.82-2.55,13.49-4.31,2.56-10.86,4.31-18.84,4.31"/><path class="cls-1" d="M230.42,121.48V121l1.07-.11c1-.1,1.11-.56,1.11-3.74v-6.92c0-3.21-.17-3.64-1.11-3.75l-1.07-.1v-.55h6.71v.55l-1.06.1c-1,.11-1.11.54-1.11,3.75v6.92c0,3.18.14,3.64,1.11,3.74l1.06.11v.52Z"/><path class="cls-1" d="M239.06,121l1-.06c.94-.07,1.11-.36,1.13-3.16l0-7.3c0-1-.56-1.51-1.55-1.61l-.62-.09v-.48h3.51c.31,0,.73.36,1.19.82,2.14,2.19,5.33,5.75,7.78,8.57l.11,0-.09-6.23c0-2.2-.27-2.47-1.11-2.55l-.92-.11v-.48h5.21v.48l-.81.11c-1,.12-1.09.56-1.09,3.14v9.47a4.91,4.91,0,0,1-.88.17c-2.76-3.43-5.54-6.46-9.45-10.65l-.11,0,0,6.72c0,2.86.21,3.09,1.13,3.16l1,.06v.48h-5.48Z"/><path class="cls-1" d="M256.58,121.35a23.61,23.61,0,0,1-.23-3.13h.52a3.29,3.29,0,0,0,3.37,2.63c1.51,0,2.57-.79,2.57-2,0-1-.66-1.71-1.69-2.42l-1.57-1.13c-1.5-1.09-2.86-2.24-2.86-3.79,0-2.19,1.88-3.49,4.1-3.49,1.61,0,2.67.46,3.68.5a16.29,16.29,0,0,1-.36,3.35h-.58c-.09-1.93-1.09-3-2.68-3a2,2,0,0,0-2.16,1.86c0,1,.82,1.69,2.05,2.51l1.36.9c2.07,1.38,2.83,2.49,2.83,3.85,0,2.53-2.41,3.78-4.81,3.78C258.78,121.79,257.44,121.35,256.58,121.35Z"/><path class="cls-1" d="M269.84,121.48V121l1.05-.11c.88-.08,1.06-.29,1.06-3v-8.39a18.49,18.49,0,0,0-2.21-.16c-1.36,0-1.8.83-2.28,2.69h-.57a31.87,31.87,0,0,1,.36-3.68h11.58a31.87,31.87,0,0,1,.36,3.68h-.59c-.52-1.86-1-2.69-2.26-2.69a17.45,17.45,0,0,0-2.21.16v8.39c0,2.8.12,3,1.06,3l1,.11v.48Z"/><path class="cls-1" d="M281,121.48V121l1-.09c.83-.08,1-.48,1-3.13V112c0-2.68-.15-3.06-1-3.14l-1-.11v-.48H287v.48l-1,.11c-.86.08-1,.46-1,3.14v5.75c0,2.65.13,3,1,3.13l1,.09v.48Z"/><path class="cls-1" d="M291.72,121.48V121l1-.11c.88-.08,1.07-.29,1.07-3v-8.39a18.67,18.67,0,0,0-2.22-.16c-1.36,0-1.8.83-2.28,2.69h-.56a34.32,34.32,0,0,1,.35-3.68h11.59a34.32,34.32,0,0,1,.35,3.68h-.58c-.52-1.86-1-2.69-2.26-2.69a17.62,17.62,0,0,0-2.22.16v8.39c0,2.8.13,3,1.07,3l1,.11v.48Z"/><path class="cls-1" d="M304.18,116v-4c0-2.81-.21-3.06-.94-3.14l-.84-.09v-.48h6.07v.48l-1,.09c-.92.08-1.06.48-1.06,3.11v3.68c0,3.58,1.13,5.13,3.82,5.13s3.68-1.9,3.68-5V112c0-2.81-.14-3.06-1.06-3.14l-1-.09v-.48h5.53v.48l-.74.09c-.92.1-1.06.48-1.06,3.11v4.1c0,3.35-1.95,5.71-5.63,5.71S304.18,119.87,304.18,116Z"/><path class="cls-1" d="M321.64,121.48V121l1.05-.11c.87-.08,1.06-.29,1.06-3v-8.39a18.34,18.34,0,0,0-2.21-.16c-1.36,0-1.8.83-2.28,2.69h-.57a31.87,31.87,0,0,1,.36-3.68h11.59A34.32,34.32,0,0,1,331,112h-.59c-.52-1.86-1-2.69-2.25-2.69a17.48,17.48,0,0,0-2.22.16v8.39c0,2.8.12,3,1.06,3l1,.11v.48Z"/><path class="cls-1" d="M332.77,115c0-4.27,3.24-7,7.42-7,4.37,0,7.24,2.82,7.24,6.82,0,4.24-3.27,7-7.41,7C335.65,121.79,332.77,119,332.77,115ZM345,115c0-3-1.53-6-5-6-3.2,0-4.73,2.56-4.73,5.82,0,3.09,1.59,6,5.09,6C343.5,120.81,345,118.11,345,115Z"/><path class="cls-1" d="M355.73,121l1-.06c.94-.07,1.11-.36,1.13-3.16l0-7.3c0-1-.56-1.51-1.55-1.61l-.62-.09v-.48h3.51c.31,0,.73.36,1.19.82,2.13,2.19,5.33,5.75,7.78,8.57l.11,0-.09-6.23c0-2.2-.27-2.47-1.11-2.55l-.92-.11v-.48h5.21v.48l-.81.11c-1,.12-1.09.56-1.09,3.14v9.47a4.91,4.91,0,0,1-.88.17c-2.76-3.43-5.54-6.46-9.45-10.65l-.11,0,0,6.72c0,2.86.21,3.09,1.13,3.16l1,.06v.48h-5.48Z"/><path class="cls-1" d="M380,121l.77,0c.86,0,1.13-.23,1.13-.73a7,7,0,0,0-.54-1.87l-.53-1.36c-1.27,0-3.51,0-4.6,0l-.42,1a9.13,9.13,0,0,0-.71,2.17c0,.51.46.69,1.84.8v.48h-5.14v-.42c1.15-.25,1.55-.52,2.17-1.9l5-10.94a1.33,1.33,0,0,1,.44-.08c.84,2,4.44,10.85,5.19,12a1.62,1.62,0,0,0,1.48.86v.48H380Zm-1.38-9.12h-.13c-.25.61-1.59,3.62-1.84,4.22l3.79,0C380.11,115.44,378.92,112.59,378.61,111.88Z"/><path class="cls-1" d="M386.91,114.91c0-4.27,3-6.92,7.78-6.92,1.9,0,3.89.52,4.79.52a6.48,6.48,0,0,1,.1,1.15,24.92,24.92,0,0,1-.25,3h-.62c0-2.63-1.53-3.66-4-3.66-3.37,0-5.37,2.37-5.37,6s2.28,5.82,5.45,5.82a3.77,3.77,0,0,0,4-2.89h.55a8.52,8.52,0,0,1-.59,3,8.93,8.93,0,0,1-4.31,1C390.28,121.79,386.91,119.58,386.91,114.91Z"/><path class="cls-1" d="M401.76,121.48V121l1-.09c.84-.08,1-.48,1-3.13V112c0-2.68-.15-3.06-1-3.14l-1-.11v-.48h6.06v.48l-1,.11c-.86.08-1,.46-1,3.14v5.75c0,2.65.12,3,1,3.13l1,.09v.48Z"/><path class="cls-1" d="M409.49,115c0-4.27,3.24-7,7.43-7,4.37,0,7.23,2.82,7.23,6.82,0,4.24-3.26,7-7.4,7C412.38,121.79,409.49,119,409.49,115Zm12.2,0c0-3-1.53-6-5-6-3.2,0-4.73,2.56-4.73,5.82,0,3.09,1.59,6,5.08,6C420.22,120.81,421.69,118.11,421.69,115Z"/><path class="cls-1" d="M425.68,121l1-.06c.94-.07,1.11-.36,1.13-3.16l0-7.3c0-1-.56-1.51-1.55-1.61l-.62-.09v-.48h3.51c.32,0,.73.36,1.19.82,2.14,2.19,5.34,5.75,7.78,8.57l.11,0-.08-6.23c0-2.2-.28-2.47-1.11-2.55l-.92-.11v-.48h5.2v.48l-.81.11c-1,.12-1.09.56-1.09,3.14v9.47a4.91,4.91,0,0,1-.88.17c-2.76-3.43-5.54-6.46-9.45-10.65l-.11,0,0,6.72c0,2.86.2,3.09,1.12,3.16l1,.06v.48h-5.48Z"/><path class="cls-1" d="M449.94,121l.77,0c.86,0,1.13-.23,1.13-.73a7,7,0,0,0-.54-1.87l-.52-1.36c-1.28,0-3.52,0-4.61,0l-.41,1a8.69,8.69,0,0,0-.71,2.17c0,.51.45.69,1.84.8v.48h-5.15v-.42c1.15-.25,1.55-.52,2.18-1.9l5-10.94a1.33,1.33,0,0,1,.44-.08c.84,2,4.44,10.85,5.19,12A1.63,1.63,0,0,0,456,121v.48h-6.08Zm-1.38-9.12h-.13c-.25.61-1.59,3.62-1.84,4.22l3.79,0C450.06,115.44,448.87,112.59,448.56,111.88Z"/><path class="cls-1" d="M457.36,121.48V121l1-.09c.82-.08,1-.48,1-3.13V112c0-2.68-.15-3.06-1-3.14l-1-.11v-.48h6.11v.48l-1,.11c-.86.08-1,.46-1,3.14v5.52c0,2.8.15,3,1.32,3h1.49c1.48,0,2.21-1.17,2.67-2.65h.52a15.38,15.38,0,0,1-.52,3.53Z"/><path class="cls-1" d="M277.39,141.56l1-.11c.84-.08,1-.48,1-3.14v-5.75c0-2.67-.14-3.05-1-3.13l-1-.11v-.44c3,0,4.92-.08,6.63-.08,4.12,0,8.07,1.53,8.07,6.31,0,4-3.2,6.91-8.38,6.91h-6.32Zm4.12-2.09c0,1.31.46,1.67,2,1.67,3.45,0,6.09-2,6.09-5.77s-2.12-5.61-5.78-5.61a12.63,12.63,0,0,0-2.34.25Z"/><path class="cls-1" d="M293.77,142v-.48l1-.09c.81-.08,1-.48,1-3.14v-5.75c0-2.67-.15-3.05-1-3.13l-1-.11v-.48h9.12a5.55,5.55,0,0,1,.06.82,12,12,0,0,1-.27,2.4h-.53c-.1-1.4-.44-2.28-2-2.28a16.51,16.51,0,0,0-2.23.23v4.9h.92c2,0,2.3-.13,2.55-1.2h.48l-.17,3.83h-.48l-.15-.75c-.14-.82-.48-1-2.3-1h-.85v2.42c0,2.72.29,2.89,1.5,2.89h1c1.61,0,2.24-.82,2.66-2.22h.52a13,13,0,0,1-.5,3.1Z"/><path class="cls-1" d="M311.77,142v-.48l1-.09c.82-.08,1-.48,1-3.14v-5.75c0-2.67-.15-3.05-1-3.13l-1-.11v-.48h9.12a5.55,5.55,0,0,1,.06.82,11.34,11.34,0,0,1-.27,2.4h-.52c-.11-1.4-.44-2.28-2-2.28a16.67,16.67,0,0,0-2.24.23v4.9h.92c2,0,2.3-.13,2.55-1.2h.48l-.16,3.83h-.48l-.15-.75c-.15-.82-.48-1-2.3-1h-.86v2.42c0,2.72.29,2.89,1.51,2.89h1c1.61,0,2.24-.82,2.65-2.22h.53a13,13,0,0,1-.5,3.1Z"/><path class="cls-1" d="M323.52,135.45c0-4.27,3.06-6.92,7.79-6.92,1.9,0,3.88.52,4.78.52a5.54,5.54,0,0,1,.11,1.15,27.2,27.2,0,0,1-.25,3h-.63c0-2.64-1.53-3.66-4-3.66-3.37,0-5.38,2.36-5.38,6s2.28,5.82,5.46,5.82a3.78,3.78,0,0,0,4-2.89H336a8.57,8.57,0,0,1-.59,3,9,9,0,0,1-4.3,1C326.89,142.33,323.52,140.11,323.52,135.45Z"/><path class="cls-1" d="M338.39,135.53c0-4.26,3.24-7,7.43-7,4.37,0,7.23,2.82,7.23,6.81,0,4.25-3.26,7-7.4,7C341.28,142.33,338.39,139.55,338.39,135.53Zm12.19,0c0-3-1.52-6-5-6-3.2,0-4.73,2.55-4.73,5.81,0,3.1,1.59,6,5.08,6C349.12,141.35,350.58,138.65,350.58,135.49Z"/><path class="cls-1" d="M354.73,142v-.48l1-.09c.81-.08,1-.48,1-3.14v-5.75c0-2.67-.15-3.05-1-3.13l-1-.11v-.48h6.1v.48l-1,.11c-.86.08-1,.46-1,3.13v5.52c0,2.81.15,3.06,1.32,3.06h1.49c1.48,0,2.21-1.17,2.67-2.66h.53a14.89,14.89,0,0,1-.53,3.54Z"/><path class="cls-1" d="M366.39,135.53c0-4.26,3.25-7,7.43-7,4.37,0,7.24,2.82,7.24,6.81,0,4.25-3.27,7-7.41,7C369.28,142.33,366.39,139.55,366.39,135.53Zm12.2,0c0-3-1.53-6-5-6-3.2,0-4.73,2.55-4.73,5.81,0,3.1,1.59,6,5.08,6C377.12,141.35,378.59,138.65,378.59,135.49Z"/><path class="cls-1" d="M383.44,135.45c0-4.27,3.07-6.92,7.8-6.92,1.9,0,4.16.54,5.08.54a9.65,9.65,0,0,1,.08,1.11,16.21,16.21,0,0,1-.27,2.89h-.56c-.19-2.54-1.88-3.54-4.31-3.54-3.28,0-5.4,2.16-5.4,5.94,0,3.58,2.43,5.82,5.46,5.82,1.86,0,2.87-.63,2.87-1.85,0-2.57-.19-3-1-3l-1.07-.06v-.48H398v.5l-.66,0c-.84,0-1,.57-1,2.76a17.31,17.31,0,0,0,.11,2.07,14,14,0,0,1-5.4,1.09C386.85,142.33,383.44,140.11,383.44,135.45Z"/><path class="cls-1" d="M399.33,142v-.48l1-.09c.84-.08,1-.48,1-3.14v-5.75c0-2.67-.15-3.05-1-3.13l-1-.11v-.48h6.07v.48l-1,.11c-.85.08-1,.46-1,3.13v5.75c0,2.66.13,3.06,1,3.14l1,.09V142Zm.75-15.17a17.55,17.55,0,0,0,4.29-2.51h.09a2.5,2.5,0,0,1,.94,1.34c0,.78-3.77,1.55-5.32,1.59Z"/><path class="cls-1" d="M414.72,141.54l.78,0c.86,0,1.13-.22,1.13-.73a6.8,6.8,0,0,0-.55-1.86l-.52-1.36c-1.28,0-3.51,0-4.6,0l-.42,1a9,9,0,0,0-.71,2.18c0,.5.46.69,1.84.8V142h-5.14v-.42c1.14-.25,1.54-.52,2.17-1.91l5-10.93a1.11,1.11,0,0,1,.44-.09c.84,2.05,4.43,10.86,5.18,12a1.65,1.65,0,0,0,1.49.86V142h-6.09Zm-1.38-9.12h-.12c-.25.6-1.59,3.61-1.84,4.22l3.78,0C414.85,136,413.66,133.13,413.34,132.42Z"/><path class="cls-1" d="M235.8,162.55v-.48l1-.06c.92-.06,1-.25,1-3V156.8a46.12,46.12,0,0,0-3.18-5.9,2.07,2.07,0,0,0-1.95-1v-.48h2.91c.44,0,.94.44,1.72,1.71.58,1,1.4,2.6,2,4h.11c1.42-2.77,1.88-3.92,1.88-4.4s-.21-.56-.82-.65l-1-.14v-.48h5.56v.48c-1.06.16-1.35.25-1.81.75a42.92,42.92,0,0,0-3.29,5.71V159c0,2.84.11,3,1.05,3l1,.06v.48Z"/><path class="cls-1" d="M253.3,156c0-4.27,3.05-6.93,7.78-6.93,1.9,0,3.89.53,4.79.53a6.39,6.39,0,0,1,.1,1.15,24.93,24.93,0,0,1-.25,3h-.62c0-2.63-1.53-3.65-4-3.65-3.37,0-5.38,2.36-5.38,6s2.29,5.81,5.47,5.81a3.77,3.77,0,0,0,4-2.88h.55a8.7,8.7,0,0,1-.59,3,8.92,8.92,0,0,1-4.31,1C256.67,162.87,253.3,160.65,253.3,156Z"/><path class="cls-1" d="M275.22,162.07l.77,0c.86,0,1.13-.23,1.13-.73a6.94,6.94,0,0,0-.54-1.86l-.53-1.36c-1.27,0-3.51,0-4.6,0l-.42,1a9,9,0,0,0-.71,2.18c0,.5.46.69,1.84.79v.48H267v-.42c1.15-.25,1.54-.52,2.17-1.9l5-10.94a1.33,1.33,0,0,1,.44-.08c.84,2,4.43,10.85,5.19,12a1.62,1.62,0,0,0,1.48.86v.48h-6.08ZM273.84,153h-.13c-.25.61-1.59,3.62-1.84,4.23l3.78,0C275.34,156.51,274.15,153.66,273.84,153Z"/><path class="cls-1" d="M282,162.55v-.48l.92-.08c.84-.09,1.07-.48,1.21-1.82l1-9.14c-.45-.69-.8-1-1.28-1.09l-.78-.08v-.48h3.23c.67,0,2.65,3.66,4.93,9.58h.13a101.31,101.31,0,0,0,3.68-9.58h4.31v.48l-.82.08c-.67.06-1,.42-1,1.13,0,.9.67,8.2.77,9.1.15,1.21.27,1.75,1,1.82l1,.08v.48h-6v-.48l.9-.08c.83-.07,1-.29,1-1s-.44-5.49-.73-8.55h-.13c-1.17,2.85-2.72,6.46-3.85,9.52-.21,0-1,.1-1.25.1a101.09,101.09,0,0,0-4.08-9.49H286c-.29,3-.6,7.57-.6,8.42s.14.9,1.09,1l.85.08v.48Z"/><path class="cls-1" d="M301.77,162.07l1-.08c.81-.09,1-.48,1-3.14V153.1c0-2.66-.15-3-1-3.12l-1-.08v-.46c1.43-.06,4.06-.1,5.28-.1,3,0,4.53,1.1,4.53,3.07A3.12,3.12,0,0,1,309,155.3v.08c2.07.27,3.49,1.34,3.49,3.2,0,2.4-2.07,4-5.29,4h-5.44Zm5.21-7a2.15,2.15,0,0,0,2.22-2.39c0-1.61-.8-2.42-2-2.42a4.51,4.51,0,0,0-1.3.23v4.62Zm3.08,4a2.93,2.93,0,0,0-2.87-3.18l-1.3,0v2.93c0,2.67.3,2.88,1.51,2.88A2.45,2.45,0,0,0,310.06,159.08Z"/><path class="cls-1" d="M314.28,162.55v-.48l1-.08c.84-.09,1-.48,1-3.14V153.1c0-2.68-.14-3-1-3.14l-1-.1v-.48h6.06v.48l-1,.1c-.85.09-1,.46-1,3.14v5.75c0,2.66.13,3.05,1,3.14l1,.08v.48Z"/><path class="cls-1" d="M322,156.07c0-4.27,3.24-7,7.42-7,4.37,0,7.24,2.83,7.24,6.82,0,4.25-3.26,7-7.41,7C324.9,162.87,322,160.08,322,156.07Zm12.19,0c0-3-1.53-6-5-6-3.2,0-4.73,2.55-4.73,5.81,0,3.1,1.59,6,5.09,6C332.75,161.88,334.21,159.19,334.21,156Z"/><path class="cls-1" d="M345.33,156c0-4.27,3.06-6.93,7.78-6.93,1.91,0,3.89.53,4.79.53a5.54,5.54,0,0,1,.11,1.15,27.23,27.23,0,0,1-.25,3h-.63c0-2.63-1.53-3.65-4-3.65-3.37,0-5.38,2.36-5.38,6s2.28,5.81,5.46,5.81a3.77,3.77,0,0,0,4-2.88h.54a8.47,8.47,0,0,1-.59,3,8.88,8.88,0,0,1-4.3,1C348.7,162.87,345.33,160.65,345.33,156Z"/><path class="cls-1" d="M360.18,162.55v-.48l1-.08c.81-.09,1-.48,1-3.14V153.1c0-2.68-.15-3-1-3.14l-1-.1v-.48h6.11v.48l-1,.1c-.86.09-1,.46-1,3.14v5.52c0,2.8.15,3,1.32,3h1.49c1.48,0,2.21-1.17,2.67-2.65h.53a15.33,15.33,0,0,1-.53,3.53Z"/><path class="cls-1" d="M372.06,162.55v-.48l1-.08c.84-.09,1-.48,1-3.14V153.1c0-2.68-.14-3-1-3.14l-1-.1v-.48h6.07v.48l-1,.1c-.85.09-1,.46-1,3.14v5.75c0,2.66.13,3.05,1,3.14l1,.08v.48Z"/><path class="cls-1" d="M379.4,162.55v-.48l.92-.08c.84-.09,1.07-.48,1.21-1.82l1-9.14c-.44-.69-.8-1-1.28-1.09l-.77-.08v-.48h3.22c.67,0,2.65,3.66,4.93,9.58h.13a101.31,101.31,0,0,0,3.68-9.58h4.31v.48l-.82.08c-.67.06-1,.42-1,1.13,0,.9.67,8.2.77,9.1.15,1.21.28,1.75,1,1.82l1,.08v.48h-6v-.48l.9-.08c.84-.07,1-.29,1-1s-.44-5.49-.73-8.55h-.13c-1.17,2.85-2.72,6.46-3.84,9.52-.21,0-1,.1-1.26.1a101.09,101.09,0,0,0-4.08-9.49h-.1c-.29,3-.61,7.57-.61,8.42s.15.9,1.09,1l.86.08v.48Z"/><path class="cls-1" d="M406.59,162.07l.77,0c.86,0,1.13-.23,1.13-.73a6.94,6.94,0,0,0-.54-1.86l-.53-1.36c-1.27,0-3.51,0-4.6,0l-.42,1a9,9,0,0,0-.71,2.18c0,.5.46.69,1.84.79v.48h-5.14v-.42c1.15-.25,1.55-.52,2.17-1.9l5-10.94a1.33,1.33,0,0,1,.44-.08c.84,2,4.44,10.85,5.19,12a1.62,1.62,0,0,0,1.48.86v.48h-6.08ZM405.21,153h-.13c-.25.61-1.59,3.62-1.84,4.23l3.79,0C406.71,156.51,405.52,153.66,405.21,153Zm-1.49-5.56a17.55,17.55,0,0,0,4.29-2.51h.08a2.41,2.41,0,0,1,.94,1.34c0,.77-3.76,1.55-5.31,1.59Z"/><path class="cls-1" d="M415.75,162.55v-.48l1-.1c.88-.09,1.07-.3,1.07-3.06v-8.38a16.7,16.7,0,0,0-2.22-.17c-1.36,0-1.8.84-2.28,2.7h-.56a34.08,34.08,0,0,1,.35-3.68h11.59a34,34,0,0,1,.36,3.68h-.59c-.52-1.86-1-2.7-2.26-2.7a15.93,15.93,0,0,0-2.22.17v8.38c0,2.81.13,3,1.07,3.06l1,.1v.48Z"/><path class="cls-1" d="M426.85,162.55v-.48l1-.08c.84-.09,1-.48,1-3.14V153.1c0-2.68-.14-3-1-3.14l-1-.1v-.48h6.06v.48l-1,.1c-.85.09-1,.46-1,3.14v5.75c0,2.66.13,3.05,1,3.14l1,.08v.48Z"/><path class="cls-1" d="M434.59,156c0-4.27,3.05-6.93,7.78-6.93,1.9,0,3.89.53,4.79.53a6.39,6.39,0,0,1,.1,1.15,24.93,24.93,0,0,1-.25,3h-.62c0-2.63-1.53-3.65-4-3.65-3.37,0-5.37,2.36-5.37,6s2.27,5.81,5.45,5.81a3.77,3.77,0,0,0,4-2.88h.54a8.45,8.45,0,0,1-.58,3,9,9,0,0,1-4.31,1C438,162.87,434.59,160.65,434.59,156Z"/><path class="cls-1" d="M449.46,156.07c0-4.27,3.24-7,7.42-7,4.37,0,7.24,2.83,7.24,6.82,0,4.25-3.26,7-7.4,7C452.34,162.87,449.46,160.08,449.46,156.07Zm12.19,0c0-3-1.53-6-5-6-3.2,0-4.73,2.55-4.73,5.81,0,3.1,1.59,6,5.09,6C460.19,161.88,461.65,159.19,461.65,156Z"/></g></g></svg>