<?xml version="1.0" encoding="iso-8859-1"?>
<!-- Generator: Adobe Illustrator 18.0.0, SVG Export Plug-In . SVG Version: 6.00 Build 0)  -->
<!DOCTYPE svg PUBLIC "-//W3C//DTD SVG 1.1//EN" "http://www.w3.org/Graphics/SVG/1.1/DTD/svg11.dtd">
<svg version="1.1" id="Capa_1" xmlns="http://www.w3.org/2000/svg" xmlns:xlink="http://www.w3.org/1999/xlink" x="0px" y="0px"
	 viewBox="0 0 490 490" style="enable-background:new 0 0 490 490;" xml:space="preserve">
<g>
	<path d="M453.271,179.81L293.587,20.125C280.609,7.147,263.354,0,245,0s-35.609,7.147-48.586,20.125L36.728,179.81
		c-12.919,12.919-16.601,31.431-9.609,48.311c5.227,12.619,15.315,21.663,27.718,25.426v167.742
		c0,37.888,30.824,68.712,68.711,68.712h242.925c37.888,0,68.712-30.824,68.712-68.712V253.542
		c12.387-3.765,22.471-12.809,27.695-25.422C469.873,211.241,466.191,192.729,453.271,179.81z M435.165,216.64
		c-0.859,2.075-4.354,8.846-13.239,8.846c-9.23,0-16.74,7.51-16.74,16.74v179.062c0,21.346-17.366,38.712-38.712,38.712H123.548
		c-21.346,0-38.711-17.366-38.711-38.712V242.226c0-9.23-7.51-16.74-16.763-16.74c-8.884,0-12.379-6.771-13.239-8.846
		c-0.86-2.075-3.176-9.334,3.106-15.617L217.626,41.338C224.938,34.027,234.66,30,245,30s20.062,4.027,27.374,11.338
		l159.685,159.685C438.341,207.306,436.024,214.564,435.165,216.64z"/>
	<path d="M366.924,278.154h-36.981c-8.284,0-15,6.716-15,15s6.716,15,15,15h36.981c8.284,0,15-6.716,15-15
		S375.208,278.154,366.924,278.154z"/>
	<path d="M305.069,248.088c3.839,0,7.678-1.464,10.606-4.394l26.149-26.149c5.858-5.858,5.858-15.355,0-21.213
		c-5.857-5.858-15.355-5.858-21.213,0l-26.149,26.149c-5.858,5.858-5.858,15.355,0,21.213
		C297.391,246.624,301.23,248.088,305.069,248.088z"/>
	<path d="M245.007,223.204c8.284,0,15-6.716,15-15v-36.981c0-8.284-6.716-15-15-15s-15,6.716-15,15v36.981
		C230.007,216.488,236.723,223.204,245.007,223.204z"/>
	<path d="M174.334,243.685c2.929,2.929,6.768,4.394,10.606,4.394s7.678-1.464,10.606-4.394c5.858-5.858,5.858-15.355,0-21.213
		l-26.149-26.149c-5.857-5.858-15.355-5.858-21.213,0c-5.858,5.858-5.858,15.355,0,21.213L174.334,243.685z"/>
	<path d="M175.057,293.14c0-8.284-6.716-15-15-15h-36.981c-8.284,0-15,6.716-15,15s6.716,15,15,15h36.981
		C168.341,308.14,175.057,301.424,175.057,293.14z"/>
	<path d="M174.324,342.599l-26.149,26.15c-5.857,5.858-5.857,15.355,0,21.213c2.929,2.929,6.768,4.393,10.606,4.393
		s7.678-1.464,10.607-4.394l26.149-26.15c5.857-5.858,5.857-15.355,0-21.213C189.68,336.741,180.182,336.741,174.324,342.599z"/>
	<path d="M244.993,363.09c-8.284,0-15,6.716-15,15v36.981c0,8.284,6.716,15,15,15s15-6.716,15-15V378.09
		C259.993,369.806,253.277,363.09,244.993,363.09z"/>
	<path d="M315.665,342.609c-5.857-5.858-15.355-5.858-21.213,0c-5.858,5.858-5.858,15.355,0,21.213l26.149,26.149
		c2.929,2.929,6.768,4.394,10.606,4.394s7.678-1.464,10.606-4.394c5.858-5.858,5.858-15.355,0-21.213L315.665,342.609z"/>
	<path d="M245,233.525c-32.875,0-59.622,26.746-59.622,59.622s26.747,59.622,59.622,59.622s59.622-26.746,59.622-59.622
		S277.875,233.525,245,233.525z M245,322.769c-16.333,0-29.622-13.288-29.622-29.622s13.289-29.622,29.622-29.622
		s29.622,13.288,29.622,29.622S261.333,322.769,245,322.769z"/>
</g>
<g>
</g>
<g>
</g>
<g>
</g>
<g>
</g>
<g>
</g>
<g>
</g>
<g>
</g>
<g>
</g>
<g>
</g>
<g>
</g>
<g>
</g>
<g>
</g>
<g>
</g>
<g>
</g>
<g>
</g>
</svg>
